<?xml version="1.0" encoding="UTF-8" standalone="no"?>
<!DOCTYPE svg PUBLIC "-//W3C//DTD SVG 1.1//EN"
 "http://www.w3.org/Graphics/SVG/1.1/DTD/svg11.dtd">
<!-- Generated by graphviz version 2.40.1 (20161225.0304)
 -->
<!-- Title: G Pages: 1 -->
<svg width="389pt" height="414pt"
 viewBox="0.00 0.00 388.68 414.00" xmlns="http://www.w3.org/2000/svg" xmlns:xlink="http://www.w3.org/1999/xlink">
<g id="graph0" class="graph" transform="scale(1 1) rotate(0) translate(4 410)">
<title>G</title>
<polygon fill="#ffffff" stroke="transparent" points="-4,4 -4,-410 384.6765,-410 384.6765,4 -4,4"/>
<!-- A0 -->
<g id="node1" class="node">
<title>A0</title>
<polygon fill="#6aa84f" stroke="#000000" points="144.35,-406 52.318,-406 52.318,-350 150.35,-350 150.35,-400 144.35,-406"/>
<polyline fill="none" stroke="#000000" points="144.35,-406 144.35,-400 "/>
<polyline fill="none" stroke="#000000" points="150.35,-400 144.35,-400 "/>
<text text-anchor="middle" x="101.334" y="-393" font-family="Helvetica,sans-Serif" font-size="10.00" fill="#000000">High Level</text>
<text text-anchor="middle" x="101.334" y="-381" font-family="Helvetica,sans-Serif" font-size="10.00" fill="#000000">Social</text>
<text text-anchor="middle" x="101.334" y="-369" font-family="Helvetica,sans-Serif" font-size="10.00" fill="#000000">Capital Banking</text>
<text text-anchor="middle" x="101.334" y="-357" font-family="Helvetica,sans-Serif" font-size="10.00" fill="#000000">Classes</text>
</g>
<!-- A1 -->
<g id="node2" class="node">
<title>A1</title>
<polygon fill="none" stroke="#000000" points="222.334,-396 168.334,-396 168.334,-360 222.334,-360 222.334,-396"/>
<text text-anchor="middle" x="195.334" y="-375" font-family="Helvetica,sans-Serif" font-size="10.00" fill="#000000">User</text>
</g>
<!-- A2 -->
<g id="node3" class="node">
<title>A2</title>
<polygon fill="none" stroke="#000000" points="186.334,-300 132.334,-300 132.334,-264 186.334,-264 186.334,-300"/>
<text text-anchor="middle" x="159.334" y="-279" font-family="Helvetica,sans-Serif" font-size="10.00" fill="#000000">Job</text>
</g>
<!-- A1&#45;&gt;A2 -->
<g id="edge1" class="edge">
<title>A1&#45;&gt;A2</title>
<path fill="none" stroke="#000000" d="M184.3282,-348.6512C179.7112,-336.3393 174.3673,-322.0887 169.8087,-309.9325"/>
<polygon fill="none" stroke="#000000" points="184.3491,-348.7072 190.2012,-352.9206 188.5627,-359.9431 182.7106,-355.7297 184.3491,-348.7072"/>
<polygon fill="#000000" stroke="#000000" points="166.1974,-300.3023 173.9221,-308.0855 167.953,-304.9839 169.7087,-309.6656 169.7087,-309.6656 169.7087,-309.6656 167.953,-304.9839 165.4952,-311.2457 166.1974,-300.3023 166.1974,-300.3023"/>
<text text-anchor="middle" x="180.4761" y="-311.3065" font-family="Helvetica,sans-Serif" font-size="10.00" fill="#000000">projects 0..*</text>
<text text-anchor="middle" x="174.284" y="-342.9389" font-family="Helvetica,sans-Serif" font-size="10.00" fill="#000000">1</text>
</g>
<!-- A3 -->
<g id="node4" class="node">
<title>A3</title>
<polygon fill="none" stroke="#000000" points="258.334,-300 204.334,-300 204.334,-264 258.334,-264 258.334,-300"/>
<text text-anchor="middle" x="231.334" y="-279" font-family="Helvetica,sans-Serif" font-size="10.00" fill="#000000">Skill</text>
</g>
<!-- A1&#45;&gt;A3 -->
<g id="edge2" class="edge">
<title>A1&#45;&gt;A3</title>
<path fill="none" stroke="#000000" d="M206.3398,-348.6512C210.9568,-336.3393 216.3007,-322.0887 220.8593,-309.9325"/>
<polygon fill="none" stroke="#000000" points="206.3189,-348.7072 207.9574,-355.7297 202.1053,-359.9431 200.4668,-352.9206 206.3189,-348.7072"/>
<polygon fill="#000000" stroke="#000000" points="224.4706,-300.3023 225.1728,-311.2457 222.715,-304.9839 220.9593,-309.6656 220.9593,-309.6656 220.9593,-309.6656 222.715,-304.9839 216.7459,-308.0855 224.4706,-300.3023 224.4706,-300.3023"/>
<text text-anchor="middle" x="226.0203" y="-317.2422" font-family="Helvetica,sans-Serif" font-size="10.00" fill="#000000">services 0..*</text>
<text text-anchor="middle" x="200.5556" y="-337.0033" font-family="Helvetica,sans-Serif" font-size="10.00" fill="#000000">1</text>
</g>
<!-- A4 -->
<g id="node5" class="node">
<title>A4</title>
<polygon fill="none" stroke="#000000" points="222.334,-168 168.334,-168 168.334,-132 222.334,-132 222.334,-168"/>
<text text-anchor="middle" x="195.334" y="-147" font-family="Helvetica,sans-Serif" font-size="10.00" fill="#000000">Task</text>
</g>
<!-- A2&#45;&gt;A4 -->
<g id="edge3" class="edge">
<title>A2&#45;&gt;A4</title>
<path fill="none" stroke="#000000" d="M167.4514,-252.2361C173.5218,-229.9781 181.7653,-199.7518 187.7127,-177.9447"/>
<polygon fill="#000000" stroke="#000000" points="167.4216,-252.3456 169.702,-259.1866 164.2642,-263.9227 161.9838,-257.0817 167.4216,-252.3456"/>
<polygon fill="#000000" stroke="#000000" points="190.3479,-168.2825 192.058,-179.1142 189.0322,-173.1063 187.7166,-177.9302 187.7166,-177.9302 187.7166,-177.9302 189.0322,-173.1063 183.3752,-176.7461 190.3479,-168.2825 190.3479,-168.2825"/>
<text text-anchor="middle" x="193.7331" y="-184.9939" font-family="Helvetica,sans-Serif" font-size="10.00" fill="#000000">*</text>
<text text-anchor="middle" x="160.8789" y="-241.2113" font-family="Helvetica,sans-Serif" font-size="10.00" fill="#000000">*</text>
</g>
<!-- A5 -->
<g id="node6" class="node">
<title>A5</title>
<polygon fill="none" stroke="#000000" points="150.4661,-168 36.2019,-168 36.2019,-132 150.4661,-132 150.4661,-168"/>
<text text-anchor="middle" x="93.334" y="-147" font-family="Helvetica,sans-Serif" font-size="10.00" fill="#000000">Top Social Solution</text>
</g>
<!-- A2&#45;&gt;A5 -->
<g id="edge4" class="edge">
<title>A2&#45;&gt;A5</title>
<path fill="none" stroke="#000000" d="M150.2954,-263.9227C139.1017,-241.5355 119.9278,-203.1876 106.95,-177.2319"/>
<polygon fill="#000000" stroke="#000000" points="102.4753,-168.2825 110.9724,-175.2143 104.7114,-172.7547 106.9475,-177.2268 106.9475,-177.2268 106.9475,-177.2268 104.7114,-172.7547 102.9225,-179.2393 102.4753,-168.2825 102.4753,-168.2825"/>
<text text-anchor="middle" x="118.1416" y="-177.715" font-family="Helvetica,sans-Serif" font-size="10.00" fill="#000000">1</text>
</g>
<!-- A6 -->
<g id="node7" class="node">
<title>A6</title>
<polygon fill="none" stroke="#000000" points="241.334,-182 241.334,-214 332.334,-214 332.334,-182 241.334,-182"/>
<text text-anchor="start" x="270.1665" y="-195" font-family="Helvetica,sans-Serif" font-size="10.00" fill="#000000">Service</text>
<polygon fill="none" stroke="#000000" points="241.334,-150 241.334,-182 332.334,-182 332.334,-150 241.334,-150"/>
<text text-anchor="start" x="251.2745" y="-163" font-family="Helvetica,sans-Serif" font-size="10.00" fill="#000000">UNSPSC_Code</text>
<polygon fill="none" stroke="#000000" points="241.334,-118 241.334,-150 332.334,-150 332.334,-118 241.334,-118"/>
<text text-anchor="start" x="272.672" y="-131" font-family="Helvetica,sans-Serif" font-size="10.00" fill="#000000">price()</text>
<polygon fill="none" stroke="#000000" points="241.334,-86 241.334,-118 332.334,-118 332.334,-86 241.334,-86"/>
<text text-anchor="start" x="265.728" y="-99" font-family="Helvetica,sans-Serif" font-size="10.00" fill="#000000">rc_price()</text>
</g>
<!-- A2&#45;&gt;A6 -->
<g id="edge5" class="edge">
<title>A2&#45;&gt;A6</title>
<path fill="none" stroke="#000000" d="M179.7369,-263.7804C194.4562,-250.3869 214.5985,-231.5398 231.334,-214 232.2158,-213.0759 233.1013,-212.1404 233.9892,-211.1955"/>
<polygon fill="#000000" stroke="#000000" points="240.8237,-203.7971 237.3436,-214.1961 237.4309,-207.4699 234.0381,-211.1426 234.0381,-211.1426 234.0381,-211.1426 237.4309,-207.4699 230.7327,-208.0891 240.8237,-203.7971 240.8237,-203.7971"/>
<text text-anchor="middle" x="234.7327" y="-219.847" font-family="Helvetica,sans-Serif" font-size="10.00" fill="#000000">*</text>
<text text-anchor="middle" x="187.4179" y="-242.3141" font-family="Helvetica,sans-Serif" font-size="10.00" fill="#000000">*</text>
</g>
<!-- A3&#45;&gt;A4 -->
<g id="edge6" class="edge">
<title>A3&#45;&gt;A4</title>
<path fill="none" stroke="#000000" d="M226.4038,-263.9227C220.3786,-241.83 210.1142,-204.194 203.0421,-178.2629"/>
<polygon fill="#000000" stroke="#000000" points="200.3201,-168.2825 207.2928,-176.7461 201.6358,-173.1063 202.9514,-177.9302 202.9514,-177.9302 202.9514,-177.9302 201.6358,-173.1063 198.6099,-179.1142 200.3201,-168.2825 200.3201,-168.2825"/>
<text text-anchor="middle" x="213.244" y="-180.546" font-family="Helvetica,sans-Serif" font-size="10.00" fill="#000000">1</text>
</g>
<!-- A3&#45;&gt;A6 -->
<g id="edge7" class="edge">
<title>A3&#45;&gt;A6</title>
<path fill="none" stroke="#000000" d="M238.8662,-263.9227C243.3735,-253.1053 249.4334,-238.5614 255.7133,-223.4898"/>
<polygon fill="#000000" stroke="#000000" points="259.6399,-214.0659 259.9475,-225.0275 257.7168,-218.6813 255.7937,-223.2967 255.7937,-223.2967 255.7937,-223.2967 257.7168,-218.6813 251.6398,-221.5659 259.6399,-214.0659 259.6399,-214.0659"/>
<text text-anchor="middle" x="260.4705" y="-231.0486" font-family="Helvetica,sans-Serif" font-size="10.00" fill="#000000">*</text>
<text text-anchor="middle" x="238.0356" y="-240.94" font-family="Helvetica,sans-Serif" font-size="10.00" fill="#000000">*</text>
</g>
<!-- A8 -->
<g id="node9" class="node">
<title>A8</title>
<polygon fill="none" stroke="#000000" points="94.5026,-36 .1654,-36 .1654,0 94.5026,0 94.5026,-36"/>
<text text-anchor="middle" x="47.334" y="-15" font-family="Helvetica,sans-Serif" font-size="10.00" fill="#000000">Social Network</text>
</g>
<!-- A5&#45;&gt;A8 -->
<g id="edge9" class="edge">
<title>A5&#45;&gt;A8</title>
<path fill="none" stroke="#000000" d="M83.6884,-122.3213C74.6739,-96.4536 61.4719,-58.5696 53.7052,-36.2825"/>
<polygon fill="none" stroke="#000000" points="80.4385,-123.6315 87.0343,-131.9227 87.0486,-121.3279 80.4385,-123.6315"/>
</g>
<!-- A9 -->
<g id="node10" class="node">
<title>A9</title>
<polygon fill="none" stroke="#000000" points="168.0595,-36 112.6085,-36 112.6085,0 168.0595,0 168.0595,-36"/>
<text text-anchor="middle" x="140.334" y="-15" font-family="Helvetica,sans-Serif" font-size="10.00" fill="#000000">Public</text>
</g>
<!-- A5&#45;&gt;A9 -->
<g id="edge10" class="edge">
<title>A5&#45;&gt;A9</title>
<path fill="none" stroke="#000000" d="M103.1893,-122.3213C112.3998,-96.4536 125.8887,-58.5696 133.8243,-36.2825"/>
<polygon fill="none" stroke="#000000" points="99.8278,-121.3281 99.7706,-131.9227 106.4222,-123.6761 99.8278,-121.3281"/>
</g>
<!-- A7 -->
<g id="node8" class="node">
<title>A7</title>
<polygon fill="none" stroke="#000000" points="380.5195,-300 276.1485,-300 276.1485,-264 380.5195,-264 380.5195,-300"/>
<text text-anchor="middle" x="328.334" y="-285" font-family="Helvetica,sans-Serif" font-size="10.00" fill="#000000">Category Interest</text>
<text text-anchor="middle" x="328.334" y="-273" font-family="Helvetica,sans-Serif" font-size="10.00" fill="#000000">Tag</text>
</g>
<!-- A7&#45;&gt;A6 -->
<g id="edge8" class="edge">
<title>A7&#45;&gt;A6</title>
<path fill="none" stroke="#000000" d="M319.5118,-254.273C316.6119,-245.159 313.2385,-234.5571 309.7754,-223.673"/>
<polygon fill="#000000" stroke="#000000" points="322.5821,-263.9227 315.2619,-255.7579 321.0661,-259.1581 319.55,-254.3935 319.55,-254.3935 319.55,-254.3935 321.0661,-259.1581 323.8382,-253.029 322.5821,-263.9227 322.5821,-263.9227"/>
<polygon fill="#000000" stroke="#000000" points="306.7186,-214.0659 314.0389,-222.2307 308.2347,-218.8305 309.7507,-223.5952 309.7507,-223.5952 309.7507,-223.5952 308.2347,-218.8305 305.4625,-224.9596 306.7186,-214.0659 306.7186,-214.0659"/>
</g>
<!-- A10 -->
<g id="node11" class="node">
<title>A10</title>
<polygon fill="#fff8dc" stroke="#000000" points="352.365,-400 240.303,-400 240.303,-356 358.365,-356 358.365,-394 352.365,-400"/>
<polyline fill="none" stroke="#000000" points="352.365,-400 352.365,-394 "/>
<polyline fill="none" stroke="#000000" points="358.365,-394 352.365,-394 "/>
<text text-anchor="middle" x="299.334" y="-387" font-family="Helvetica,sans-Serif" font-size="10.00" fill="#000000">Top Social Solution</text>
<text text-anchor="middle" x="299.334" y="-375" font-family="Helvetica,sans-Serif" font-size="10.00" fill="#000000">= Fair Social</text>
<text text-anchor="middle" x="299.334" y="-363" font-family="Helvetica,sans-Serif" font-size="10.00" fill="#000000">Engineered Solution</text>
</g>
</g>
</svg>
